<svg xmlns="http://www.w3.org/2000/svg" viewBox="0 0 360 360" width="360" height="360" preserveAspectRatio="xMidYMid meet" role="img" aria-label="Orientierungskarte: Lindenstraße 14 in der Mitte, 6 nummerierte Orte ringsum. 1 Waschküche (UG), 20 m Süden; 2 Mülltonnen (Hof), 30 m Osten; 3 Fahrradkeller, 35 m Norden; 4 Tiefgarage, 45 m Südwesten; 5 Haltestelle Lindenstr., 180 m Nordwesten; 6 Supermarkt, 350 m Nordosten."><rect width="360" height="360" fill="#FFF7EE"/><circle cx="180" cy="180" r="100.0" fill="none" stroke="#E4DAC7" stroke-width="1.2"/><text x="218.3" y="91.6" text-anchor="middle" font-family="sans-serif" font-size="11" fill="#6C6559" stroke="#FFF7EE" stroke-width="3.5" paint-order="stroke">160 m</text><circle cx="180" cy="180" r="117.8" fill="none" stroke="#E4DAC7" stroke-width="1.2"/><text x="225.1" y="75.2" text-anchor="middle" font-family="sans-serif" font-size="11" fill="#6C6559" stroke="#FFF7EE" stroke-width="3.5" paint-order="stroke">280 m</text><circle cx="180" cy="180" r="132.0" fill="none" stroke="#E4DAC7" stroke-width="1.2"/><text x="230.5" y="62.0" text-anchor="middle" font-family="sans-serif" font-size="11" fill="#6C6559" stroke="#FFF7EE" stroke-width="3.5" paint-order="stroke">400 m</text><path d="M180 24 l6 14 l-6 -4.5 l-6 4.5 Z" fill="#7B641A"/><text x="180" y="16" text-anchor="middle" font-family="sans-serif" font-size="12" font-weight="700" letter-spacing="1.2" fill="#6C6559">N</text><line x1="180" y1="180" x2="180.0" y2="244.4" stroke="#E4DAC7" stroke-width="1"/><line x1="180" y1="180" x2="248.7" y2="180.0" stroke="#E4DAC7" stroke-width="1"/><line x1="180" y1="180" x2="180.0" y2="109.3" stroke="#E4DAC7" stroke-width="1"/><line x1="180" y1="180" x2="127.6" y2="232.4" stroke="#E4DAC7" stroke-width="1"/><line x1="180" y1="180" x2="106.9" y2="106.9" stroke="#E4DAC7" stroke-width="1"/><line x1="180" y1="180" x2="269.4" y2="90.6" stroke="#E4DAC7" stroke-width="1"/><circle cx="180.0" cy="244.4" r="12.0" fill="#FFF7EE" stroke="#4A4238" stroke-width="1.6"/><text x="180.0" y="249.0" text-anchor="middle" font-family="sans-serif" font-size="13" font-weight="600" fill="#4A4238">1</text><circle cx="248.7" cy="180.0" r="12.0" fill="#FFF7EE" stroke="#4A4238" stroke-width="1.6"/><text x="248.7" y="184.6" text-anchor="middle" font-family="sans-serif" font-size="13" font-weight="600" fill="#4A4238">2</text><circle cx="180.0" cy="109.3" r="12.0" fill="#FFF7EE" stroke="#4A4238" stroke-width="1.6"/><text x="180.0" y="113.9" text-anchor="middle" font-family="sans-serif" font-size="13" font-weight="600" fill="#4A4238">3</text><circle cx="127.6" cy="232.4" r="12.0" fill="#FFF7EE" stroke="#4A4238" stroke-width="1.6"/><text x="127.6" y="237.0" text-anchor="middle" font-family="sans-serif" font-size="13" font-weight="600" fill="#4A4238">4</text><circle cx="106.9" cy="106.9" r="12.0" fill="#FFF7EE" stroke="#4A4238" stroke-width="1.6"/><text x="106.9" y="111.5" text-anchor="middle" font-family="sans-serif" font-size="13" font-weight="600" fill="#4A4238">5</text><circle cx="269.4" cy="90.6" r="12.0" fill="#FFF7EE" stroke="#4A4238" stroke-width="1.6"/><text x="269.4" y="95.2" text-anchor="middle" font-family="sans-serif" font-size="13" font-weight="600" fill="#4A4238">6</text><circle cx="180" cy="180" r="13" fill="#D4AF37" stroke="#FFF7EE" stroke-width="3"/><circle cx="180" cy="180" r="4.5" fill="#FFF7EE"/></svg>